<?xml version="1.0" encoding="UTF-8" standalone="no"?>
<!-- Created with Inkscape (http://www.inkscape.org/) -->

<svg
   width="139.43541mm"
   height="56.356247mm"
   viewBox="0 0 139.43541 56.356247"
   version="1.1"
   id="svg5"
   xml:space="preserve"
   xmlns:inkscape="http://www.inkscape.org/namespaces/inkscape"
   xmlns:sodipodi="http://sodipodi.sourceforge.net/DTD/sodipodi-0.dtd"
   xmlns="http://www.w3.org/2000/svg"
   xmlns:svg="http://www.w3.org/2000/svg"><sodipodi:namedview
     id="namedview7"
     pagecolor="#ffffff"
     bordercolor="#000000"
     borderopacity="0.25"
     inkscape:showpageshadow="2"
     inkscape:pageopacity="0.0"
     inkscape:pagecheckerboard="0"
     inkscape:deskcolor="#d1d1d1"
     inkscape:document-units="mm"
     showgrid="false" /><defs
     id="defs2" /><g
     inkscape:label="Calque 1"
     inkscape:groupmode="layer"
     id="layer1"
     transform="translate(170.24961,-176.3325)"><g
       id="g1722"
       transform="translate(-17.234043,87.319149)"
       sodipodi:insensitive="true"><path
         style="fill:#fdfdfd;stroke-width:0.264583"
         d="M -153.01556,117.19148 V 89.013359 h 69.717705 69.717705 v 28.178121 28.17813 h -69.717705 -69.717705 z m 18.56458,21.91823 -0.0886,-2.0278 0.32328,-1.15463 0.32328,-1.15463 0.22673,-0.14013 0.22673,-0.14013 0.88643,0.67611 0.88643,0.67611 h 0.30575 0.30576 v -0.11544 -0.11543 l -0.66181,-2.72884 -0.66181,-2.72883 -0.3206,-2.87421 -0.32061,-2.8742 -0.33388,-0.12813 -0.33389,-0.12812 -3.90922,1.38935 -3.90923,1.38934 -0.25083,0.22341 -0.25084,0.2234 0.8816,0.90959 0.88161,0.90959 -0.17797,2.33207 -0.17796,2.33207 0.40113,1.33448 0.40113,1.33447 0.98901,1.15544 0.98901,1.15543 1.5596,1.14811 1.5596,1.14812 0.16933,5.3e-4 0.16933,5.2e-4 -0.0885,-2.02779 z m 43.80477,-2.09991 1.118312,-0.13743 0.154075,-0.2493 0.154072,-0.24929 h -1.217393 -1.217395 l -2.039366,-0.41578 -2.039366,-0.41578 -2.304891,-0.76638 -2.304898,-0.76638 -3.11906,-1.42273 -3.11907,-1.42272 -3.70148,-2.13292 -3.70147,-2.13292 -0.26728,-0.43937 -0.26727,-0.43936 0.78832,-0.63587 0.78832,-0.63587 -0.26602,-0.26602 -0.26602,-0.26601 -6.55802,-1.10116 -6.55802,-1.10116 -0.28354,0.28354 -0.28354,0.28354 1.28199,2.18674 1.282,2.18674 1.5043,1.99795 1.5043,1.99796 1.055,1.12448 1.05501,1.12448 h 0.3017 0.3017 l 0.24171,-0.63576 0.24171,-0.63576 0.2478,-0.15315 0.2478,-0.15314 3.40654,1.28224 3.40655,1.28223 2.38125,0.69191 2.38125,0.6919 2.24895,0.51527 2.24896,0.51528 2.381252,0.28934 2.38125,0.28934 1.322917,0.0607 1.322917,0.0607 1.322916,-0.0763 1.322917,-0.0763 z m 19.651479,-8.9704 v -2.51354 h -0.529166 -0.529167 v 2.51354 2.51354 h 0.529167 0.529166 z m 2.385301,1.38906 0.004,-1.12448 0.223094,-0.35191 0.223094,-0.35192 0.765043,0.0873 0.76504,0.0873 0.132292,1.32062 0.132291,1.32062 0.463021,0.0878 0.463021,0.0878 v -1.45571 -1.45571 l -0.411753,-0.41175 -0.411755,-0.41175 -1.57262,0.0433 -1.572622,0.0433 v 1.80472 1.80472 h 0.396875 0.396875 l 0.004,-1.12448 z m 7.433564,-0.52844 0.89676,-1.65292 0.08819,-0.19916 0.0882,-0.19916 h -0.546145 -0.546145 l -0.63826,1.25589 -0.63826,1.25588 -0.610158,-1.25588 -0.610158,-1.25589 h -0.476446 -0.476443 v 0.14108 0.14109 l 0.69283,1.38027 0.692833,1.38026 0.265607,0.33073 0.265607,0.33073 h 0.327615 0.327615 z m 5.44459,1.29433 0.170572,-0.17057 -0.168532,-0.16854 -0.168532,-0.16853 -1.242126,-0.0299 -1.242126,-0.0299 -0.110696,-0.33073 -0.110697,-0.33073 h 1.609551 1.609547 v -0.4089 -0.4089 l -0.649433,-0.64943 -0.64943,-0.64943 h -0.879197 -0.879197 l -0.588037,0.41187 -0.588039,0.41188 v 1.02833 1.02833 l 0.595313,0.43021 0.595312,0.43022 1.262589,-0.11235 1.262586,-0.11235 z m -2.816825,-2.16846 0.34059,-0.41039 0.795909,0.0797 0.795911,0.0797 0.108569,0.33073 0.108572,0.33073 h -1.245071 -1.245071 z m 7.679096,2.25316 0.511773,-0.27389 v -0.46694 -0.46694 l -0.3175,-0.3175 -0.3175,-0.3175 -0.806979,-0.0186 -0.806979,-0.0186 -0.511603,-0.20035 -0.511607,-0.20034 0.323136,-0.19971 0.323136,-0.19971 1.090443,0.0879 1.09044,0.0879 0.101034,-0.29704 0.101034,-0.29704 -0.606132,-0.16237 -0.606131,-0.16237 -0.705964,-0.004 -0.705966,-0.004 -0.425863,0.16342 -0.425865,0.16342 -0.25671,0.47967 -0.256706,0.47966 0.415247,0.41525 0.415251,0.41525 h 1.023818 1.023821 l 0.1744,0.28219 0.1744,0.28218 -0.166896,0.1669 -0.166897,0.1669 -0.851783,-0.0471 -0.851787,-0.047 -0.500689,-0.0713 -0.50069,-0.0713 -0.109265,0.30851 -0.109265,0.30851 0.477663,0.12382 0.477663,0.12382 1.141873,0.0307 1.141873,0.0307 0.511772,-0.27389 z m 3.42219,-0.12298 v -0.39688 h -0.396875 -0.396875 v -1.05833 -1.05833 h 0.396875 0.396875 v -0.39688 -0.39687 h -0.396875 -0.396875 v -0.52917 -0.52917 h -0.377497 -0.377497 l -0.394798,0.7914 -0.3948,0.79139 0.24313,0.15026 0.243129,0.15027 v 1.12209 1.12209 l 0.3175,0.3175 0.3175,0.3175 h 0.608541 0.608542 z m 2.120717,-0.72761 0.004,-1.12448 0.223094,-0.35191 0.223094,-0.35192 0.765043,0.0873 0.76504,0.0873 0.07997,1.38906 0.07997,1.38906 h 0.501512 0.501513 l 0.07997,-1.38906 0.07997,-1.38906 h 0.79375 0.79375 l 0.07997,1.38906 0.07997,1.38906 h 0.515339 0.51534 v -1.36823 -1.36823 l -0.437883,-0.48385 -0.437883,-0.48385 h -0.832117 -0.832117 l -0.289095,0.28909 -0.289094,0.2891 -0.514009,-0.27509 -0.514006,-0.27509 -1.366482,0.0311 -1.366481,0.0311 v 1.80695 1.80695 h 0.396875 0.396875 l 0.004,-1.12448 z m 10.836203,0.87023 0.389213,-0.24614 -0.210196,-0.2102 -0.210195,-0.21019 -1.212871,-0.003 -1.212869,-0.003 -0.112675,-0.33073 -0.112676,-0.33073 h 1.609551 1.609547 v -0.52917 -0.52916 l -0.529166,-0.52917 -0.529167,-0.52917 h -0.938067 -0.938069 l -0.649431,0.64943 -0.649433,0.64944 v 0.59028 0.59029 l 0.575286,0.61236 0.575289,0.61237 1.078357,-0.004 1.07836,-0.004 0.389212,-0.24614 z m -2.572025,-2.19314 0.110244,-0.33073 h 0.881944 0.881943 l 0.110244,0.33073 0.110244,0.33073 h -1.102431 -1.102432 z m 5.229572,1.32291 0.004,-1.12448 0.223094,-0.35191 0.223094,-0.35192 0.765042,0.0873 0.76504,0.0873 0.07997,1.38906 0.07997,1.38906 h 0.51534 0.515339 v -1.4142 -1.4142 l -0.486767,-0.44052 -0.486767,-0.44052 -1.563753,0.0691 -1.563754,0.0691 -0.08117,1.42339 -0.08117,1.42339 0.139015,0.36227 0.139015,0.36226 h 0.40518 0.405178 l 0.004,-1.12448 z m 6.610532,0.83513 v -0.28935 l -0.529167,-0.13838 -0.529166,-0.13838 V 128.67 127.64253 h 0.381259 0.381262 l 0.174527,-0.2824 0.174527,-0.28239 -0.555786,-0.14534 -0.555789,-0.14534 v -0.49831 -0.49831 h -0.377497 -0.377497 l -0.394798,0.7914 -0.394801,0.79139 0.243131,0.15026 0.243128,0.15027 v 0.92782 0.92782 l 0.273892,0.51177 0.273894,0.51177 h 0.784439 0.784442 z m -71.738619,-6.86694 1.683253,-0.27313 1.263636,-0.64033 1.263637,-0.64034 0.934924,-1.09225 0.934921,-1.09224 0.313481,-1.30673 0.313478,-1.30674 -0.182486,-0.97273 -0.182483,-0.97273 -0.499401,-0.9789 -0.499398,-0.9789 -0.991481,-0.81727 -0.991484,-0.81726 -1.331301,-0.45863 -1.331299,-0.45863 -2.38125,0.008 -2.381252,0.008 -1.66077,0.75252 -1.66076,0.75251 -0.81973,0.93361 -0.81973,0.93362 -0.36377,0.87064 -0.36378,0.87064 0.006,1.39756 0.006,1.39756 0.48182,1.0606 0.48183,1.0606 1.01448,0.89073 1.01448,0.89072 0.94528,0.39508 0.94528,0.39508 1.19063,0.20216 1.190624,0.20216 0.396875,0.0291 0.396875,0.0291 1.683252,-0.27313 z m -2.783856,-1.82832 -0.836019,-0.1992 -0.88377,-0.50738 -0.88377,-0.50737 -0.61419,-1.18457 -0.6142,-1.18458 0.13398,-1.40769 0.13398,-1.40769 0.69233,-0.90769 0.69233,-0.90769 0.71392,-0.36531 0.71393,-0.36531 1.078258,-0.17903 1.078262,-0.17902 1.170696,0.29815 1.1707,0.29816 0.574537,0.47048 0.574535,0.47049 0.548955,0.90045 0.548952,0.90045 0.0011,1.26527 0.0011,1.26527 -0.3688,0.88267 -0.368802,0.88266 -0.893273,0.68134 -0.893273,0.68133 -1.185323,0.27312 -1.18532,0.27312 -0.132292,-0.0206 -0.132291,-0.0206 -0.83602,-0.19921 z m 26.103727,1.33135 0.661459,-0.46885 0.08174,-0.81813 0.08175,-0.81814 -0.478621,-0.41961 -0.47862,-0.41961 -0.79375,-0.63761 -0.79375,-0.63762 0.330729,-0.54228 0.330729,-0.54229 v -0.14034 -0.14034 l -1.299694,0.65861 -1.299694,0.6586 -0.578917,0.81301 -0.578916,0.81302 -0.02556,0.90184 -0.02556,0.90184 0.49359,0.54542 0.493591,0.54541 0.815271,0.23941 0.815269,0.23942 0.79375,-0.13146 0.79375,-0.13145 0.661458,-0.46885 z m 11.1125,0.59959 v -0.17451 l -1.543294,-2.27289 -1.543293,-2.27289 -2.851986,-4.1863 -2.851983,-4.18631 -1.181008,1.76047 -1.181007,1.76047 0.138544,0.36104 0.138544,0.36103 2.659618,3.9767 2.659615,3.9767 v 0.35911 0.35911 l 0.17639,0.17639 0.176387,0.17639 h 2.601738 2.601735 z m 12.501562,-0.3858 0.992187,-0.25384 v -0.0826 -0.0826 l -0.298162,-0.85531 -0.298164,-0.85531 -0.561731,0.17139 -0.561735,0.17138 -1.782622,0.15059 -1.782619,0.15059 -1.241698,-0.34766 -1.241697,-0.34765 -0.99582,-0.99582 -0.995821,-0.99582 -0.176493,-0.9408 -0.176495,-0.9408 0.174786,-0.9317 0.174789,-0.93169 0.793028,-0.90321 0.79303,-0.90321 1.157502,-0.44206 1.157502,-0.44205 2.203606,0.11313 2.203606,0.11314 0.365694,0.11331 0.365693,0.1133 0.364882,-0.86531 0.364879,-0.86532 -0.730573,-0.29788 -0.730575,-0.29787 -2.778125,-0.009 -2.778125,-0.009 -1.555969,0.6086 -1.55597,0.6086 -1.065072,0.96023 -1.065072,0.96022 -0.482002,1.05834 -0.482003,1.05833 -0.0043,1.05833 -0.0043,1.05834 0.277543,0.99941 0.27754,0.99943 0.821645,0.9358 0.821645,0.9358 1.274302,0.64574 1.274302,0.64573 1.395349,0.24239 1.395349,0.24238 1.852083,-0.13231 1.852083,-0.1323 0.992188,-0.25384 z m 23.107267,0.12893 1.080707,-0.14475 0.336637,-0.20805 0.336638,-0.20805 -0.186862,-0.85079 -0.186865,-0.85078 -0.569021,0.1858 -0.569023,0.18581 -2.778125,0.11993 -2.778125,0.11994 -1.18849,-0.61249 -1.18849,-0.61249 -0.597447,-0.89902 -0.597448,-0.89902 v -0.49004 -0.49004 h 5.820833 5.820833 l -0.0058,-1.25677 -0.0058,-1.25677 -0.489993,-1.05834 -0.489992,-1.05833 -0.760968,-0.71357 -0.760969,-0.71357 -0.993801,-0.41513 -0.993804,-0.41514 -1.523801,-0.15927 -1.523805,-0.15927 -1.715727,0.43834 -1.715728,0.43833 -0.989928,0.65346 -0.989928,0.65346 -0.667856,1.0092 -0.667853,1.00919 -0.312547,1.49009 -0.312549,1.49009 0.45431,1.44124 0.454311,1.44124 1.08222,0.97772 1.082217,0.97772 0.891805,0.37262 0.891804,0.37262 1.394082,0.24394 1.394079,0.24395 1.719791,-0.12413 1.719792,-0.12412 1.080706,-0.14476 z m -8.885914,-7.73158 v -0.22546 l 0.595313,-0.87469 0.595312,-0.8747 0.707895,-0.52429 0.707896,-0.52429 1.31178,-0.12605 1.31178,-0.12605 0.91798,0.30297 0.91798,0.30296 0.574392,0.61141 0.574392,0.61141 0.239797,0.83612 0.239794,0.83612 h -4.347157 -4.347154 z m -47.847182,3.81607 0.08989,-4.08231 0.547973,-0.74634 0.547976,-0.74634 0.907232,-0.46261 0.907235,-0.46261 1.139693,-4.1e-4 1.139693,-4.1e-4 -0.08136,-1.12448 -0.08136,-1.12448 -1.214525,0.0392 -1.214525,0.0392 -1.083095,0.55256 -1.083096,0.55255 -0.414359,0.59158 -0.414358,0.59158 v -0.69869 -0.69869 l -0.1606,-0.41851 -0.160599,-0.41852 h -1.294609 -1.294609 v 6.17361 6.17362 l 0.17639,0.17638 0.176387,0.17639 h 1.387367 1.387363 z m 40.968016,-5.19132 v -9.27362 l -1.521354,0.0794 -1.521354,0.0794 -0.06979,8.86166 -0.06979,8.86166 0.127635,0.33261 0.127635,0.33261 h 1.463514 1.463511 z m -90.804295,6.02925 0.27715,-0.33395 -0.5186,-1.53615 -0.5186,-1.53614 -0.78449,-3.04258 -0.78449,-3.04257 v -0.7253 -0.7253 l -0.39628,-0.51359 -0.39628,-0.51359 -0.64937,0.72761 -0.64936,0.7276 h -0.27038 -0.27039 l -1.33339,-1.89869 -1.3334,-1.89869 -0.39329,-1.32433 -0.39328,-1.32434 v -0.90006 -0.90007 l -0.33073,0.10925 -0.33073,0.10925 -0.79375,1.54717 -0.79375,1.54717 -0.0918,2.16528 -0.0918,2.16528 0.79096,2.21962 0.79097,2.21962 0.34761,0.85087 0.34761,0.85087 -0.6226,0.66273 -0.62261,0.66272 0.36957,0.44742 0.36956,0.44741 1.45521,0.6621 1.45521,0.66211 2.77812,0.87052 2.77813,0.87052 0.16604,0.0121 0.16604,0.0121 0.27716,-0.33395 z m 8.74575,-1.24503 4.13876,-1.31441 1.7007,-0.48041 1.7007,-0.48041 0.0991,-0.29716 0.099,-0.29715 -1.07215,-0.60258 -1.07214,-0.60259 v -0.35482 -0.35483 l 1.57441,-1.69239 1.57443,-1.69238 2.2249,-2.09573 2.22491,-2.09572 2.82122,-2.0922 2.82122,-2.09219 2.34133,-1.47508 2.34132,-1.475075 2.203801,-0.728362 2.203797,-0.728362 2.371272,-0.153628 2.37127,-0.153628 -0.638505,-0.525753 -0.638506,-0.525753 -1.455208,-0.672984 -1.455209,-0.672984 -2.513541,0.02942 -2.513541,0.02942 -2.38125,0.689193 -2.38125,0.689192 -3.70417,1.820907 -3.70416,1.820907 -2.77813,1.84894 -2.77812,1.84894 -2.91042,2.35536 -2.91042,2.35537 -0.43157,0.16504 -0.43158,0.16505 -0.94345,-0.64109 -0.94345,-0.64108 h -0.23699 -0.237 l -0.68588,3.37343 -0.68588,3.37344 -0.14786,0.92604 -0.14787,0.92604 -0.0356,1.62404 -0.0355,1.62403 0.18182,0.2942 0.18183,0.29419 h 0.2774 0.2774 z m 61.950212,-6.09393 v -0.26458 h -0.41249 -0.412488 l 0.16352,0.26458 0.16352,0.26458 h 0.248971 0.248967 z"
         id="path1738" /><path
         style="fill:#f2ea5e;stroke-width:0.264583"
         d="m -129.57631,120.00783 -0.1399,-0.22636 0.65345,0.12491 0.65345,0.12492 v 0.10145 0.10144 h -0.51355 -0.51355 z m -0.0766,-2.94864 v -1.45521 l 0.11022,0.72761 0.11022,0.7276 -0.11022,0.72761 -0.11022,0.7276 z m 7.27944,0.8776 0.34726,-0.13897 0.15985,0.15985 0.15986,0.15986 -0.50712,-0.0209 -0.50712,-0.0209 0.34727,-0.13897 z m 2.03398,-0.61301 0.52917,-0.22739 h 0.39687 0.39688 l -0.52917,0.22739 -0.52917,0.22739 h -0.39687 -0.39688 z m 1.67018,-0.44533 0.34727,-0.13896 0.15985,0.15985 0.15985,0.15985 -0.50711,-0.0209 -0.50712,-0.0209 0.34726,-0.13897 z m 1.0757,-0.32289 0.36462,-0.23095 -0.205,-0.36032 -0.20501,-0.36031 0.33326,0.30768 0.33327,0.30768 -0.17777,0.28763 -0.17777,0.28764 -0.31512,-0.004 -0.31511,-0.004 0.36463,-0.23095 z m -11.81227,-1.74533 8.7e-4,-0.79375 0.20197,-0.79375 0.20198,-0.79375 0.0161,0.52917 0.0161,0.52917 -0.2189,1.05833 -0.21891,1.05833 8.7e-4,-0.79375 z m 10.5216,0.39688 -0.39688,-0.25648 0.31512,-0.004 0.31511,-0.004 0.16352,0.26458 0.16352,0.26458 -0.0818,-0.004 -0.0818,-0.004 z m -0.52112,-0.72453 -0.008,-0.32766 1.25677,-1.43261 1.25677,-1.43261 0.39688,-0.17217 0.39687,-0.17218 -1.35564,1.40328 -1.35566,1.40327 -0.28994,0.52917 -0.28996,0.52916 -0.008,-0.32765 z m -9.49127,-2.71505 v -0.66146 l 0.13345,0.33073 0.13345,0.33073 -0.13345,0.33073 -0.13345,0.33072 z m 0.24369,-1.21268 0.0209,-0.50712 0.13897,0.34727 0.13896,0.34727 -0.15985,0.15985 -0.15985,0.15985 z m 12.97471,-0.30868 0.031,-0.19844 1.75493,-1.5801 1.75493,-1.5801 -1.71214,1.77854 -1.71215,1.77854 h -0.0738 -0.0738 z m -12.71012,-1.01423 0.0209,-0.50712 0.13896,0.34726 0.13896,0.34727 -0.15985,0.15985 -0.15985,0.15985 z m 1.56661,-0.6406 -0.66146,-0.51859 -0.33073,0.11929 -0.33073,0.11929 v -0.25627 -0.25628 h 0.27862 0.27862 l 0.97343,0.66145 0.97342,0.66146 -0.25986,-0.006 -0.25985,-0.006 z m 2.51354,-0.2634 0.47889,-0.52916 h 0.13229 0.13229 l -0.47889,0.52916 -0.47889,0.52917 h -0.13229 -0.13229 z m 1.12449,-0.83191 0.33075,-0.41296 1.58748,-1.2472 1.58749,-1.2472 v 0.12004 0.12004 l -1.91823,1.54013 -1.91823,1.54012 z m 11.26078,-0.67445 0.18978,-0.30707 1.05466,-0.83531 1.05466,-0.83531 v 0.12266 0.12265 l -1.24444,1.01973 -1.24444,1.01972 z m 2.56369,-2.02948 v -0.13229 l 0.79375,-0.5652 0.79375,-0.5652 v 0.13229 0.13229 l -0.79375,0.5652 -0.79375,0.5652 z m -10.05417,-0.26822 v -0.0999 l 0.46302,-0.36313 0.46302,-0.36313 -0.36312,0.46303 -0.36313,0.46302 h -0.0999 -0.0999 z m 1.05834,-0.81418 v -0.12454 l 1.52135,-1.02212 1.52135,-1.02211 0.33073,-0.19398 0.33073,-0.19399 v 0.10909 0.10909 l -1.85208,1.23155 -1.85208,1.23155 z m 10.84791,-0.24415 v -0.0999 l 0.46302,-0.36312 0.46302,-0.36313 -0.36312,0.46302 -0.36313,0.46302 h -0.0999 -0.0999 z m 1.05833,-0.82163 v -0.11709 l 1.52136,-1.028 1.52135,-1.028 0.66146,-0.34062 0.66146,-0.340612 -0.13526,0.149047 -0.13525,0.149045 -2.04756,1.33666 -2.04756,1.33666 z m -7.9375,-1.5734 v -0.13229 l 0.52917,-0.2832 0.52917,-0.28321 v 0.1323 0.13229 l -0.52917,0.2832 -0.52917,0.2832 z m 1.32292,-0.79375 v -0.13229 l 0.52917,-0.283204 0.52916,-0.283202 v 0.132292 0.132292 l -0.52916,0.283202 -0.52917,0.2832 z m 12.43542,-1.209244 0.39687,-0.25648 h 0.264586 0.264583 l -0.396879,0.25648 -0.39687,0.25648 h -0.26458 -0.26459 z m 2.860805,-0.974491 0.347265,-0.138964 0.159854,0.159852 0.15985,0.159853 -0.507116,-0.02089 -0.507119,-0.02089 z m -10.269145,-0.480718 0.66146,-0.378123 h 0.26459 0.26458 l -0.66146,0.378123 -0.66146,0.378124 h -0.26458 -0.26458 z m 11.575525,0.221647 0.330729,-0.133452 0.330729,0.133452 0.330729,0.133452 h -0.661458 -0.661458 z m 2.651863,-0.283379 1.130511,-0.101574 -0.189113,-0.315222 -0.189111,-0.315222 0.447664,0.363127 0.447665,0.363125 v 0.09989 0.0999 l -1.389063,-0.04622 -1.389062,-0.04623 z m -8.720748,-1.8388 0.34727,-0.138964 0.15985,0.159852 0.15985,0.159853 -0.50711,-0.02089 -0.50712,-0.02089 0.34726,-0.138964 z m 1.17409,-0.266227 0.46302,-0.121 0.46302,0.121 0.463026,0.121 h -0.926046 -0.92604 z m 4.502955,-9.79e-4 0.468056,-0.121969 0.325694,0.131773 0.325694,0.131774 -0.79375,-0.0098 -0.79375,-0.0098 0.468056,-0.12197 z m -2.121702,-0.263604 0.463021,-0.121 0.463021,0.121 0.463021,0.121 h -0.926042 -0.926042 z"
         id="path1736" /><path
         style="fill:#f5e621;stroke-width:0.264583"
         d="m -129.52607,119.82299 -0.14661,-0.14662 0.11422,-1.77161 0.11422,-1.77161 0.67667,-3.83646 0.67668,-3.83646 0.21728,-0.23097 0.21728,-0.23096 0.78883,0.56169 0.78883,0.5617 h 0.52155 0.52155 l 3.00948,-2.42178 3.00949,-2.42179 3.175,-2.0986 3.175,-2.09859 2.96258,-1.443752 2.96258,-1.443749 1.91896,-0.652679 1.91895,-0.65268 2.26572,-0.30166 2.265717,-0.30166 1.679221,0.295789 1.67922,0.295789 1.22769,0.723713 1.227691,0.723714 -2.495759,0.337519 -2.495759,0.337519 -1.340699,0.439085 -1.340702,0.439086 -1.72148,0.859899 -1.72149,0.859897 -3.04101,2.17833 -3.04102,2.17833 -1.45521,1.17296 -1.4552,1.17295 -3.1326,3.09399 -3.13259,3.094 -0.23989,0.44385 -0.2399,0.44386 0.14297,0.37258 0.14298,0.37258 0.91441,0.43606 0.91441,0.43605 v 0.25866 0.25867 l -1.12448,0.28643 -1.12448,0.28642 -4.53959,1.44357 -4.53959,1.44356 h -0.37725 -0.37725 z"
         id="path1734" /><path
         style="fill:#a0a0a0;stroke-width:0.264583"
         d="m -134.67249,138.62273 0.002,-1.85208 0.10414,0.99809 0.10414,0.99809 -0.10627,0.85399 -0.10628,0.854 0.002,-1.85209 z m -2.7664,0.46303 -0.36313,-0.46303 0.46302,0.36313 0.46302,0.36313 v 0.0999 0.0999 h -0.0999 -0.0999 z m -1.5875,-1.5875 -0.36313,-0.46303 0.46302,0.36313 0.46302,0.36313 v 0.0999 0.0999 h -0.0999 -0.0999 z m 40.729968,-0.51147 0.347266,-0.13897 0.159853,0.15985 0.159851,0.15986 -0.507117,-0.0209 -0.507119,-0.0209 0.347266,-0.13897 z m 8.119401,-0.34843 -0.529167,-0.22739 0.74322,-0.0186 0.743217,-0.0186 -0.16352,0.26458 -0.163521,0.26459 -0.05053,-0.0186 -0.05053,-0.0186 z m -50.327449,-3.57188 0.004,-1.32291 0.11058,0.73124 0.11057,0.73124 -0.11419,0.59168 -0.11418,0.59167 z m 20.26349,-0.59531 -0.36312,-0.46302 0.46302,0.36313 0.46302,0.36312 v 0.0999 0.0999 h -0.0999 -0.0999 z m -12.11619,-1.5434 0.0209,-0.50712 0.13896,0.34727 0.13896,0.34726 -0.15985,0.15986 -0.15985,0.15985 0.0209,-0.50712 z m -7.89701,-0.63941 v -0.92604 l 0.121,0.46302 0.121,0.46302 -0.121,0.46302 -0.121,0.46302 z m 97.910122,-0.92604 0.0036,-1.32292 0.110575,0.73124 0.110575,0.73125 -0.114187,0.59167 -0.114186,0.59167 z m 2.116666,0 0.0036,-1.32292 0.110575,0.73124 0.110574,0.73125 -0.114186,0.59167 -0.114186,0.59167 z m 14.532123,0.76706 -0.341159,-0.37019 h 0.2594 0.2594 l 0.1744,0.28219 0.1744,0.28219 -0.09264,0.088 -0.09264,0.088 z m -40.806379,-1.08501 -0.127458,-1.37628 0.215408,0.21586 0.215405,0.21585 -0.08795,1.16043 -0.08795,1.16042 z m 15.764552,0.90185 0.180654,-0.47443 0.148111,0.14811 0.148114,0.14811 -0.328766,0.32632 -0.328766,0.32632 z m 17.927049,-1.24536 v -1.71979 l 0.106714,0.85989 0.106712,0.8599 -0.106712,0.8599 -0.106714,0.85989 z m -99.790823,0.79375 v -0.66146 l 0.13345,0.33073 0.13346,0.33073 -0.13346,0.33073 -0.13345,0.33073 z m 74.76916,0.35394 0.330729,-0.13346 0.330729,0.13346 0.330729,0.13345 h -0.661458 -0.661459 z m 8.579037,-0.89634 -0.04622,-1.20385 -0.32884,-0.38365 -0.328838,-0.38364 0.478274,0.42347 0.478277,0.42347 -0.103211,1.16403 -0.103214,1.16403 z m 13.116795,0.89634 0.330729,-0.13346 0.330729,0.13346 0.330729,0.13345 h -0.661458 -0.661458 z m 6.482868,-0.75082 0.0053,-1.05833 0.115067,0.5984 0.115067,0.5984 -0.120406,0.45993 -0.120407,0.45994 0.0053,-1.05834 z m -29.049476,0.37928 -0.1744,-0.28219 0.1261,-0.1261 0.126098,-0.1261 0.156676,0.40829 0.156673,0.40828 h -0.108373 -0.108374 z m 31.40848,-0.65709 -0.04448,-1.07156 -0.198437,-0.25324 -0.198438,-0.25325 0.348994,0.29419 0.34899,0.29418 -0.106076,1.03062 -0.106077,1.03062 z m -10.840812,0.0132 0.0098,-0.79375 0.12197,0.46806 0.12197,0.46805 -0.131773,0.3257 -0.131776,0.32569 0.0098,-0.79375 z m -102.867342,-0.46302 -0.50403,-0.59531 0.59532,0.50403 0.59531,0.50403 v 0.0913 0.0913 h -0.0913 -0.0913 z m 85.374151,0.17639 0.02087,-0.50712 0.138965,0.34727 0.138964,0.34726 -0.15985,0.15986 -0.159854,0.15985 0.0209,-0.50712 z m -77.227641,-1.03629 0.01,-0.79375 0.12197,0.46806 0.12196,0.46806 -0.13177,0.32569 -0.13177,0.32569 0.01,-0.79375 z m 73.238002,0.29698 v -0.0999 l 0.463021,-0.36313 0.463021,-0.36312 -0.363125,0.46302 -0.363127,0.46302 h -0.09989 -0.0999 z m -82.285412,-0.41365 v -0.24897 l 0.26155,-0.16165 0.26155,-0.16165 -0.15756,0.41062 -0.15757,0.41062 h -0.10399 -0.10398 z m 74.298303,0.0682 0.347266,-0.13897 0.159853,0.15985 0.159851,0.15986 -0.507116,-0.0209 -0.507119,-0.0209 0.347265,-0.13897 z m 9.789583,0 0.347266,-0.13897 0.159853,0.15985 0.159851,0.15986 -0.507117,-0.0209 -0.507119,-0.0209 0.347266,-0.13897 z m 5.010547,0.006 0.330729,-0.13345 0.330729,0.13345 0.330729,0.13345 h -0.661458 -0.661458 z m 4.779036,-0.006 0.347266,-0.13897 0.159853,0.15985 0.159851,0.15986 -0.507117,-0.0209 -0.507119,-0.0209 0.347266,-0.13897 z m 6.614583,0 0.347266,-0.13897 0.159853,0.15985 0.159851,0.15986 -0.507117,-0.0209 -0.507119,-0.0209 0.347266,-0.13897 z m 5.291666,0 0.347266,-0.13897 0.159853,0.15985 0.159851,0.15986 -0.507116,-0.0209 -0.507119,-0.0209 0.347265,-0.13897 z m 5.291667,0 0.347265,-0.13897 0.159854,0.15985 0.15985,0.15986 -0.507116,-0.0209 -0.507119,-0.0209 0.347266,-0.13897 z m 4.547526,0.0793 v -0.10143 l 0.529531,-0.13848 0.529532,-0.13847 -0.148272,0.23991 -0.14827,0.23991 h -0.381262 -0.381259 z m -22.908897,-1.21844 0.02852,-0.39384 0.526126,-0.054 0.52613,-0.054 -0.446755,0.13336 -0.446751,0.13337 -0.107892,0.31446 -0.107889,0.31446 z m 21.960416,0 0.02852,-0.39384 0.526127,-0.054 0.526129,-0.054 -0.446754,0.13336 -0.446752,0.13337 -0.107891,0.31446 -0.107889,0.31446 z m -106.47235,-1.85512 -0.66146,-0.21184 0.5797,-0.0264 0.5797,-0.0264 0.16352,0.26459 0.16352,0.26458 -0.0818,-0.0264 -0.0818,-0.0264 z m 19.00039,-0.44533 0.34727,-0.13896 0.15985,0.15985 0.15985,0.15985 -0.50711,-0.0209 -0.50712,-0.0209 0.34726,-0.13896 z m 15.46159,-0.53081 0.463021,-0.121 0.463021,0.121 0.46302,0.121 h -0.926041 -0.926042 z m 23.43216,0.002 0.347266,-0.13897 0.159853,0.15985 0.159851,0.15986 -0.507116,-0.0209 -0.507119,-0.0209 0.347265,-0.13897 z m 7.898916,0.004 -0.17639,-0.17639 0.004,-0.28663 0.004,-0.28663 0.203655,0.32046 0.203655,0.32046 2.636563,0.0872 2.636564,0.0872 -2.667881,0.0554 -2.667883,0.0554 -0.176387,-0.17639 z m 13.518882,-0.0107 0.598397,-0.11507 0.459936,0.1204 0.459936,0.12041 -1.058333,-0.005 -1.058334,-0.005 0.598398,-0.11506 z m 23.283332,0 0.598398,-0.11507 0.459935,0.1204 0.459936,0.12041 -1.058333,-0.005 -1.058333,-0.005 0.598397,-0.11506 z m -55.646084,-0.41633 -0.130038,-0.33888 0.0784,-5.01894 0.0784,-5.01893 0.05994,5.21231 0.05994,5.21232 1.521355,0.0955 1.521354,0.0955 -1.529657,0.05 -1.529659,0.05 z m 35.551203,0.15813 0.347266,-0.13896 0.159853,0.15985 0.159851,0.15985 -0.507117,-0.0209 -0.507119,-0.0209 0.347266,-0.13896 z m 5.461616,-0.15187 -0.127635,-0.33261 0.06979,-8.86166 0.06979,-8.86159 1.587499,-0.0237 1.5875,-0.0237 -1.521354,0.10303 -1.521354,0.10303 v 8.96943 8.96942 l 1.521354,0.0955 1.521354,0.0955 -1.529656,0.05 -1.52966,0.05 -0.127635,-0.33261 z m 18.0863,0.15187 0.347265,-0.13896 0.159854,0.15985 0.15985,0.15985 -0.507116,-0.0209 -0.507119,-0.0209 0.347266,-0.13896 z m -99.433715,-0.59732 v -0.24897 l 0.26155,-0.16165 0.26155,-0.16165 -0.15757,0.41062 -0.15757,0.41062 h -0.10398 -0.10398 z m 4.4483,0.0682 0.34727,-0.13897 0.15985,0.15985 0.15985,0.15986 -0.50711,-0.0209 -0.50712,-0.0209 0.34726,-0.13897 z m 23.018751,-1.05834 0.347266,-0.13896 0.159853,0.15985 0.159851,0.15985 -0.507116,-0.0209 -0.507119,-0.0209 0.347265,-0.13897 z m 1.5875,0 0.347266,-0.13896 0.159853,0.15985 0.159851,0.15985 -0.507116,-0.0209 -0.507119,-0.0209 0.347265,-0.13897 z m 67.323557,-0.009 0.731242,-0.11058 0.591675,0.11419 0.591674,0.11418 -1.322917,-0.004 -1.322916,-0.004 0.731242,-0.11058 z m -4.336867,-1.59607 -0.363125,-0.46303 0.463021,0.36313 0.463021,0.36313 v 0.0999 0.0999 h -0.0999 -0.09989 z m -39.952082,-0.79375 -0.363124,-0.46303 0.46302,0.36313 0.463021,0.36313 v 0.0999 0.0999 h -0.0999 -0.09989 z m -2.479791,-0.33073 0.478891,-0.52917 h 0.132291 0.132292 l -0.478891,0.52917 -0.47889,0.52916 h -0.132292 -0.132291 z m 38.568935,-1.5875 v -1.19063 l 0.114663,0.59531 0.114662,0.59532 -0.114662,0.59531 -0.114663,0.59531 z m -36.474866,0.4926 -0.191456,-0.30978 0.282866,0.17482 0.282866,0.17482 0.134001,-0.33238 0.134004,-0.33238 0.02088,0.31512 0.0209,0.31511 -0.246301,0.15222 -0.246301,0.15223 -0.191455,-0.30978 z m -18.30456,-0.75719 v -0.92604 l 0.121002,0.46302 0.120999,0.46302 -0.120999,0.46302 -0.121002,0.46302 z m 3.180339,-0.13229 0.0053,-1.05833 0.115067,0.5984 0.115067,0.59839 -0.120406,0.45994 -0.120407,0.45993 0.0053,-1.05833 z m -52.718806,-0.31177 v -0.26767 l 0.59532,-0.50403 0.59531,-0.50403 -0.52635,0.66146 -0.52635,0.66146 -0.069,0.11024 -0.069,0.11024 z m 108.346873,-2.99552 0.47889,-0.52917 h 0.132292 0.132292 l -0.478891,0.52917 -0.478891,0.52917 h -0.132291 -0.132292 z m 6.589445,-0.33073 -0.504029,-0.59531 0.595313,0.50403 0.595312,0.50402 v 0.0913 0.0913 h -0.09128 -0.09128 z m -8.838404,-0.59531 0.621409,-0.66146 h 0.132291 0.132292 l -0.621408,0.66146 -0.621409,0.66146 h -0.132291 -0.132292 z m -47.095831,-0.52917 v -0.92604 h 0.103344 0.103346 l 0.108109,0.92604 0.108111,0.92604 h -0.211455 -0.211455 z m 20.797046,0.70556 -0.136269,-0.22049 h 0.385236 0.385236 v 0.22049 0.22048 h -0.248967 -0.248971 z m -19.871004,-0.83785 0.478891,-0.52917 h 0.132291 0.132292 l -0.478891,0.52917 -0.47889,0.52917 h -0.132292 -0.132292 z m 29.434894,0.34244 0.595313,-0.11466 0.595312,0.11466 0.595313,0.11466 h -1.190625 -1.190625 z m -24.753105,-0.73932 0.0098,-0.79375 0.12197,0.46806 0.12197,0.46806 -0.131773,0.32569 -0.131776,0.32569 0.0098,-0.79375 z m -7.658351,-0.85096 0.727604,-0.11023 0.727604,0.11023 0.727604,0.11022 h -1.455208 -1.455208 z m -12.964583,-0.26459 0.727604,-0.11022 0.727604,0.11022 0.727604,0.11023 h -1.455208 -1.455208 z m 19.314582,0.007 0.463021,-0.121 0.463021,0.121 0.463021,0.121 h -0.926042 -0.926041 z m 25.801613,-0.009 0.864634,-0.10707 0.722866,0.10977 0.722865,0.10977 -1.5875,-0.003 -1.5875,-0.003 0.864635,-0.10707 z m 22.352552,0.002 0.727604,-0.11022 0.727604,0.11022 0.727604,0.11022 h -1.455208 -1.455208 z m -110.732527,-8.83916 0.32632,-0.32877 0.14811,0.14811 0.14811,0.14812 -0.47443,0.18065 -0.47443,0.18065 z"
         id="path1732" /><path
         style="fill:#0fa3db;stroke-width:0.264583"
         d="m -100.18238,136.73463 -2.59703,-0.37558 -3.49711,-0.89629 -3.49711,-0.8963 -3.95073,-1.47759 -3.95073,-1.47759 h -0.3528 -0.3528 l -0.36935,0.85989 -0.36935,0.8599 -1.66839,-1.73253 -1.66841,-1.73253 -1.49253,-2.23622 -1.49253,-2.23622 -0.75643,-1.3737 -0.75642,-1.3737 0.26902,-0.27116 0.26902,-0.27115 6.08098,1.04244 6.08098,1.04243 0.64617,0.15721 0.64617,0.1572 -0.83471,0.7801 -0.83471,0.7801 0.13357,0.34807 0.13356,0.34806 3.22997,1.88539 3.22998,1.88539 3.57187,1.70934 3.57188,1.70933 2.778121,0.91456 2.778125,0.91456 1.719791,0.28567 1.719792,0.28568 1.058333,0.1885 1.058333,0.18851 -0.79375,0.18926 -0.79375,0.18926 -3.174999,0.003 -3.175,0.003 -2.597026,-0.37557 z"
         id="path1730" /><path
         style="fill:#e21b1f;stroke-width:0.264583"
         d="m -136.4791,139.69049 -1.85209,-1.4395 -0.92604,-1.37284 -0.92604,-1.37284 -0.004,-3.29666 -0.004,-3.29665 -0.74812,-0.6435 -0.74811,-0.6435 0.12666,-0.32197 0.12667,-0.32196 3.81123,-1.30649 3.81123,-1.30649 0.41118,0.15778 0.41117,0.15778 0.16826,2.47163 0.16827,2.47162 0.64833,2.64583 0.64834,2.64584 0.18039,0.46602 0.1804,0.46602 -0.49248,-0.18033 -0.49248,-0.18033 -0.63099,-0.48413 -0.63099,-0.48413 h -0.35381 -0.3538 l -0.4365,1.50152 -0.43651,1.50153 0.12921,1.80577 0.1292,1.80577 -0.0308,-0.003 -0.0308,-0.003 -1.85208,-1.4395 z m 59.266661,-16.58682 -0.529166,-0.28943 -0.330729,-0.41455 -0.33073,-0.41455 v -0.85517 -0.85518 l 0.694741,-0.82565 0.69474,-0.82565 1.047663,-0.53448 1.047665,-0.53448 -0.264761,0.4731 -0.264763,0.47311 0.249994,0.46711 0.249992,0.46712 0.778063,0.40235 0.778062,0.40235 0.294926,0.55107 0.294923,0.55107 -0.158623,0.63201 -0.15862,0.632 -0.77678,0.40169 -0.776777,0.40168 -1.005326,-0.008 -1.005327,-0.008 -0.529167,-0.28943 z"
         id="path1728" /><path
         style="fill:#5e5e5f;stroke-width:0.264583"
         d="m -71.932533,130.22083 -0.14433,-0.37612 0.07805,-2.09041 0.07804,-2.09041 0.473231,-0.0904 0.473234,-0.0904 -0.07636,2.44736 -0.07636,2.44736 -0.330589,0.10955 -0.330592,0.10955 z m 0.673219,-2.18143 v -2.24896 h -0.264583 -0.264584 v 2.24896 2.24896 h 0.264584 0.264583 z m 2.067057,2.3328 0.347266,-0.13896 0.159853,0.15985 0.159851,0.15985 -0.507116,-0.0209 -0.507119,-0.0209 0.347265,-0.13896 z m 3.175,0 0.347266,-0.13896 0.159853,0.15985 0.159851,0.15985 -0.507117,-0.0209 -0.507118,-0.0209 0.347265,-0.13896 z m 3.094191,-0.0808 -0.16165,-0.26155 0.410618,0.15757 0.410617,0.15757 v 0.10398 0.10398 h -0.248968 -0.24897 z m 4.959064,0.0792 0.463021,-0.121 0.463021,0.121 0.46302,0.121 h -0.926041 -0.926042 z m 4.894791,-0.004 0.595313,-0.11466 0.595312,0.11466 0.595313,0.11466 h -1.190625 -1.190625 z m 4.7625,0.0115 0.330729,-0.13345 0.330729,0.13345 0.33073,0.13345 h -0.661459 -0.661458 z m 2.397787,-0.006 0.347265,-0.13897 0.159853,0.15985 0.159851,0.15986 -0.507116,-0.0209 -0.507119,-0.0209 0.347266,-0.13897 z m 2.800789,-0.19095 -0.142632,-0.37169 0.10859,-0.88508 0.108593,-0.88508 0.04234,1.10243 0.04234,1.10243 0.33073,0.13345 0.330729,0.13345 -0.339032,0.0209 -0.339034,0.0209 -0.142629,-0.37168 z m 3.249858,0.18905 0.312497,-0.22293 0.112863,-1.18628 0.112863,-1.18628 -0.02849,1.30224 -0.02848,1.30223 -0.396875,0.10697 -0.396875,0.10697 z m 3.460901,-0.004 0.598397,-0.11507 0.459936,0.12041 0.459936,0.1204 -1.058334,-0.005 -1.058333,-0.005 0.598398,-0.11506 z m 3.982201,0.006 0.347265,-0.13896 0.159854,0.15985 0.15985,0.15985 -0.507116,-0.0209 -0.507119,-0.0209 0.347266,-0.13896 z m 2.838238,-0.0668 -0.17028,-0.27552 0.395205,0.15165 0.395205,0.15166 0.108572,-1.27917 0.108572,-1.27916 -0.02701,1.30223 -0.02701,1.30224 -0.306483,0.10079 -0.306482,0.1008 z m 3.230642,0.0724 0.330729,-0.13346 0.330729,0.13346 0.330729,0.13345 h -0.661458 -0.661458 z m -22.053507,-0.72563 -0.142631,-0.37169 0.09251,-0.88508 0.09251,-0.88508 0.126476,1.25677 0.126473,1.25677 h -0.07636 -0.07636 z m -11.156462,-0.9512 v -0.92604 l 0.121001,0.46302 0.121,0.46302 -0.121,0.46302 -0.121001,0.46302 z m 33.078254,-0.13229 0.0053,-1.05834 0.115068,0.5984 0.115067,0.5984 -0.120407,0.45994 -0.120406,0.45993 0.0053,-1.05833 z m -7.71875,-0.022 0.02087,-0.50712 0.138965,0.34726 0.138964,0.34727 -0.15985,0.15985 -0.159854,0.15985 0.0209,-0.50711 z m -3.725056,-0.73932 v -0.0999 l 0.463021,-0.36313 0.463021,-0.36312 -0.363125,0.46302 -0.363127,0.46302 h -0.09989 -0.0999 z m -4.87731,-0.40098 -0.12523,-0.20263 0.511506,0.0377 0.511506,0.0377 0.126328,0.12633 0.12633,0.12633 -0.512606,0.0386 -0.512604,0.0386 z m -21.577241,-0.40248 0.260803,-0.26081 0.260802,0.26081 0.260805,0.2608 h -0.521607 -0.521608 z m -3.1076,-0.0737 0.468056,-0.12197 0.325694,0.13177 0.325695,0.13177 -0.79375,-0.01 -0.79375,-0.01 0.468055,-0.12197 z m 9.525,0 0.468056,-0.12197 0.325694,0.13177 0.325694,0.13177 -0.79375,-0.01 -0.79375,-0.01 0.468056,-0.12197 z m 5.022048,0.001 0.463021,-0.12099 0.463021,0.12099 0.46302,0.12101 h -0.926041 -0.926042 z m 4.523073,-0.2259 -0.156676,-0.40828 0.164979,-0.16498 0.164978,-0.16498 v 0.41893 0.41892 l 0.330729,0.13345 0.330729,0.13345 -0.339031,0.0209 -0.339035,0.0209 -0.156673,-0.40829 z m 4.213212,0.22494 0.468055,-0.12197 0.325695,0.13177 0.325694,0.13177 -0.79375,-0.01 -0.79375,-0.01 0.468056,-0.12197 z m 2.910416,0 0.468056,-0.12197 0.325694,0.13177 0.325694,0.13177 -0.79375,-0.01 -0.79375,-0.01 0.468056,-0.12197 z m 5.027083,0 0.468056,-0.12197 0.325694,0.13177 0.325694,0.13177 -0.79375,-0.01 -0.79375,-0.01 0.468056,-0.12197 z m 5.55625,0 0.468056,-0.12197 0.325694,0.13177 0.325694,0.13177 -0.79375,-0.01 -0.79375,-0.01 0.468056,-0.12197 z m 4.283564,-0.0988 -0.1744,-0.28218 0.158785,-0.15879 0.158787,-0.15878 v 0.28928 0.28928 l 0.46302,0.12099 0.463021,0.12101 -0.447405,0.0307 -0.447408,0.0307 z m -57.433191,-6.99394 7.94e-4,-3.43959 0.09281,1.79695 0.09281,1.79694 -0.09365,1.64264 -0.09365,1.64264 7.94e-4,-3.43958 z m -21.289498,1.25677 -0.64143,-0.72761 0.72761,0.64144 0.7276,0.64143 v 0.0862 0.0862 h -0.0862 -0.0862 z m 12.72003,0.0661 0.621409,-0.66145 h 0.132291 0.132292 l -0.621408,0.66145 -0.621409,0.66146 h -0.132291 -0.132292 z m 38.563019,0.47474 0.595313,-0.11466 0.595312,0.11466 0.595313,0.11466 h -1.190625 -1.190625 z m 16.577466,-0.40859 -0.504029,-0.59531 0.595313,0.50403 0.595312,0.50403 v 0.0913 0.0913 h -0.09128 -0.09128 z m 8.574486,0.41457 0.347266,-0.13896 0.159853,0.15985 0.159851,0.15985 -0.507116,-0.0209 -0.507119,-0.0209 0.347265,-0.13897 z m -31.998722,-0.54686 -0.363125,-0.46302 0.463021,0.36312 0.463021,0.36313 v 0.0999 0.0999 h -0.0999 -0.09989 z m -34.362082,-0.72761 0.621409,-0.66145 h 0.132291 0.132292 l -0.621408,0.66145 -0.621409,0.66146 h -0.132291 -0.132292 z m -7.442087,-0.0661 -0.36312,-0.46302 0.46302,0.36312 0.46302,0.36313 v 0.0999 0.0999 h -0.0999 -0.0999 z m 44.326322,-0.39688 -0.504028,-0.59531 0.595312,0.50403 0.595313,0.50403 v 0.0913 0.0913 h -0.09128 -0.09128 z m -48.450232,-2.71198 0.004,-1.32291 0.11058,0.73124 0.11057,0.73124 -0.11418,0.59168 -0.11419,0.59167 z m 44.441052,0 0.0053,-1.05833 0.115067,0.5984 0.115068,0.5984 -0.120407,0.45993 -0.120406,0.45994 0.0053,-1.05834 z m -41.564532,-0.13229 v -0.66146 l 0.13346,0.33073 0.13345,0.33073 -0.13345,0.33073 -0.13346,0.33073 z m 73.563569,0.3333 5.73972,-0.0788 0.110201,-1.11945 0.110202,-1.11946 -0.02909,1.19062 -0.02909,1.19063 -5.820834,0.008 -5.820833,0.008 5.73972,-0.0788 z m -5.699566,-1.59007 -0.12337,-0.19844 3.084316,0.0691 3.084317,0.0691 1.455208,0.0793 1.455208,0.0793 -4.416155,0.05 -4.416157,0.05 z m -46.871401,-1.91823 0.47889,-0.52916 h 0.132292 0.132291 l -0.47889,0.52916 -0.478891,0.52917 h -0.132291 -0.132292 z m 21.56354,-0.0828 v -0.0828 l 0.859896,-0.7771 0.859896,-0.77711 -0.777105,0.8599 -0.777105,0.85989 h -0.08279 -0.08279 z m -44.185412,-0.54627 v -0.0999 l 0.46302,-0.36313 0.46302,-0.36313 -0.36313,0.46303 -0.36312,0.46302 h -0.0999 -0.0999 z m 79.354968,-0.89229 -0.641432,-0.72761 0.727604,0.64144 0.727604,0.64143 v 0.0862 0.0862 h -0.08617 -0.08617 z m -60.772754,-0.33073 v -0.92604 l 0.121001,0.46302 0.121,0.46302 -0.121,0.46302 -0.121001,0.46302 z m 6.288616,0.68925 v -0.1045 l 1.036076,-0.0988 1.03608,-0.0988 -0.125651,0.2033 -0.125651,0.20331 h -0.910428 -0.910426 z m 28.525389,-0.34082 0.347266,-0.13897 0.159853,0.15985 0.159851,0.15986 -0.507117,-0.0209 -0.507118,-0.0209 0.347265,-0.13897 z m 20.224088,-0.26623 0.463021,-0.121 0.46302,0.121 0.463021,0.121 h -0.926041 -0.926042 z m -106.991557,-2.66189 -0.36313,-0.46302 0.46303,0.36313 0.46302,0.36312 v 0.0999 0.0999 h -0.0999 -0.0999 z m -5.50161,-1.01423 0.0209,-0.50712 0.13896,0.34726 0.13896,0.34727 -0.15985,0.15985 -0.15985,0.15985 z m 2.15716,-5.93108 v -0.92604 l 0.121,0.46302 0.121,0.46302 -0.121,0.46302 -0.121,0.46302 z"
         id="path1726" /><path
         style="fill:#020204;stroke-width:0.264583"
         d="m -71.788481,128.0394 v -2.24896 h 0.264584 0.264583 v 2.24896 2.24896 h -0.264583 -0.264584 z m 2.38125,0.70882 v -1.54014 l 1.521354,-0.0401 1.521355,-0.0402 0.366858,0.22918 0.366858,0.22917 0.129825,1.35112 0.129826,1.35112 h -0.430538 -0.430538 v -1.13771 -1.13771 l -0.3175,-0.3175 -0.3175,-0.3175 h -0.555625 -0.555625 l -0.3175,0.3175 -0.3175,0.3175 v 1.13771 1.13771 h -0.396875 -0.396875 z m 5.840251,0.11887 -0.813168,-1.42127 v -0.16623 -0.16623 h 0.268023 0.268021 l 0.57845,1.19062 0.578451,1.19063 h 0.215299 0.2153 l 0.57845,-1.19063 0.578451,-1.19062 h 0.354525 0.354524 l -0.870268,1.58436 -0.870267,1.58436 -0.311312,0.003 -0.311311,0.003 -0.813168,-1.42127 z m 4.531416,1.10377 -0.3175,-0.3175 v -0.9525 -0.9525 l 0.3175,-0.3175 0.317499,-0.3175 h 1.096701 1.096701 l 0.437882,0.48385 0.437883,0.48386 v 0.44219 0.44218 h -1.5875 -1.5875 v 0.23219 0.23219 l 0.398309,0.33056 0.398309,0.33057 1.07637,-0.17212 1.076373,-0.17212 -0.167378,0.27082 -0.167378,0.27083 h -1.254387 -1.254385 z m 2.687719,-1.93374 -0.15317,-0.39916 -0.673227,-0.16897 -0.673224,-0.16897 -0.406324,0.2563 -0.40632,0.2563 -0.103942,0.31183 -0.103944,0.31183 h 1.336662 1.336661 z m 2.183767,2.03457 -0.148775,-0.24072 1.51479,0.0303 1.51479,0.0302 v -0.39438 -0.39439 l -1.406155,-0.22383 -1.406154,-0.22382 -0.144801,-0.37735 -0.144799,-0.37734 0.326581,-0.3935 0.32658,-0.39351 h 1.42281 1.422813 v 0.23941 0.2394 l -1.055801,-0.14161 -1.055802,-0.14161 -0.396494,0.32906 -0.396494,0.32906 0.144995,0.2346 0.144991,0.23461 h 0.992151 0.992148 l 0.476215,0.34821 0.476216,0.34822 -0.09757,0.51168 -0.09758,0.51168 -1.627939,0.0782 -1.627941,0.0782 z m 5.306153,0.0403 -0.17639,-0.17639 v -1.25677 -1.25677 l -0.330729,-0.13345 -0.330729,-0.13346 0.330729,-0.0209 0.330729,-0.0209 v -0.52917 -0.52916 h 0.264583 0.264584 v 0.4054 0.4054 l 0.575802,0.213 0.575802,0.213 -0.575802,0.15058 -0.575802,0.15058 v 1.09162 1.09164 l 0.595312,0.23928 0.595313,0.23929 -0.683506,0.0168 -0.683509,0.0168 -0.176387,-0.17639 z m 2.734027,-1.36436 v -1.54076 l 1.502923,-0.0395 1.502923,-0.0395 0.360373,0.29908 0.360373,0.29908 0.306287,-0.30628 0.306287,-0.30629 h 0.820208 0.820209 l 0.3175,0.3175 0.3175,0.3175 v 1.27 1.27 h -0.264584 -0.264583 v -1.13771 -1.13771 l -0.3175,-0.3175 -0.3175,-0.3175 h -0.555625 -0.555625 l -0.3175,0.3175 -0.3175,0.3175 v 1.13771 1.13771 h -0.264583 -0.264584 v -1.03943 -1.03944 l -0.415774,-0.41577 -0.415774,-0.41578 h -0.457351 -0.457351 l -0.317499,0.3175 -0.3175,0.3175 v 1.13771 1.13771 h -0.396875 -0.396875 z m 8.617857,1.12498 -0.415775,-0.41578 v -0.73384 -0.73384 l 0.483855,-0.43789 0.483854,-0.43788 h 1.050729 1.050729 l 0.3175,0.3175 0.3175,0.3175 v 0.59592 0.59591 l -1.63663,0.0788 -1.636628,0.0788 0.493384,0.49151 0.493387,0.4915 1.010952,-0.1356 1.010952,-0.13559 v 0.2394 0.23941 h -1.304018 -1.304017 z m 2.699379,-1.74814 -0.103941,-0.31183 -0.406321,-0.2563 -0.406323,-0.2563 -0.673224,0.16897 -0.673227,0.16897 -0.15317,0.39916 -0.153173,0.39916 h 1.336662 1.336661 z m 2.176513,0.62316 v -1.54076 l 1.502923,-0.0395 1.502923,-0.0395 0.34916,0.28977 0.34916,0.28978 v 1.29052 1.29052 h -0.250086 -0.250087 l -0.08064,-1.22967 -0.08064,-1.22967 -0.422069,-0.2645 -0.422071,-0.2645 -0.702408,0.1763 -0.70241,0.17629 v 1.31787 1.31788 h -0.396875 -0.396875 z m 5.732639,1.36436 -0.176389,-0.17639 v -1.25677 -1.25677 l -0.33073,-0.13345 -0.330729,-0.13346 0.330729,-0.0209 0.33073,-0.0209 v -0.52917 -0.52916 h 0.388572 0.38857 l -0.151641,0.39517 -0.151643,0.39517 0.603456,0.22323 0.603456,0.22323 -0.575802,0.15058 -0.575802,0.15058 0.004,0.88466 0.004,0.88467 0.194384,0.29106 0.194386,0.29105 0.396875,0.15108 0.396875,0.15107 -0.683506,0.0209 -0.683508,0.0209 -0.176388,-0.17639 z m -74.32997,-6.99066 -0.9963,-0.23472 -0.98808,-0.50926 -0.98808,-0.50927 -0.84367,-0.88308 -0.84366,-0.88308 -0.28082,-0.74483 -0.28081,-0.74483 v -1.58081 -1.58082 l 0.50494,-0.98165 0.50493,-0.98164 0.75184,-0.71342 0.75184,-0.71342 1.32291,-0.60343 1.32292,-0.60343 2.778124,-0.006 2.778125,-0.006 1.38685,0.62695 1.386854,0.62694 0.910645,1.00797 0.910646,1.00798 0.280715,1.01091 0.280715,1.01092 v 0.79375 0.79375 l -0.280715,1.01091 -0.280715,1.01092 -0.954699,1.05673 -0.954696,1.05674 -0.813633,0.42096 -0.813634,0.42096 -1.322916,0.35252 -1.322917,0.35252 -1.455208,-0.0234 -1.455211,-0.0234 -0.99629,-0.23473 z m 5.105282,-1.89493 1.178407,-0.59531 0.591005,-0.88947 0.591005,-0.88946 0.168179,-0.89647 0.16818,-0.89648 -0.16818,-0.89647 -0.168179,-0.89647 -0.58887,-0.86514 -0.58887,-0.86514 -0.747006,-0.55349 -0.747006,-0.5535 h -2.184006 -2.184001 l -0.97187,0.74129 -0.97187,0.74128 -0.35881,0.71392 -0.35881,0.71393 -0.17063,0.89572 -0.17063,0.89573 0.29249,1.08622 0.29249,1.08623 0.49923,0.7011 0.49923,0.70111 1.12705,0.55788 1.127066,0.55788 1.333,2.1e-4 1.333,2.1e-4 z m 28.302163,1.85208 -2.65e-4,-0.33073 -2.892377,-4.34011 -2.892374,-4.34012 1.081555,-1.61301 1.081556,-1.61301 0.07153,-0.0904 0.07154,-0.0905 3.234719,4.85295 3.234721,4.85294 1.148453,1.52136 1.148453,1.52135 h -2.643584 -2.643587 l -2.64e-4,-0.33073 z m 10.247275,-0.29345 -1.791568,-0.61052 -0.81235,-0.77171 -0.81235,-0.77171 -0.504934,-0.98165 -0.504936,-0.98165 v -1.44852 -1.44853 l 0.279953,-0.74482 0.279953,-0.74483 1.100535,-1.12701 1.100537,-1.12701 1.463452,-0.54755 1.463456,-0.54755 1.748483,-0.14658 1.748483,-0.14659 1.429123,0.17856 1.429123,0.17855 0.338706,0.20933 0.338704,0.20934 -0.278514,0.73254 -0.278516,0.73255 -0.459343,-0.18851 -0.459344,-0.18852 -1.719791,-0.13242 -1.719792,-0.13243 -1.084516,0.29348 -1.084517,0.29348 -0.885555,0.59678 -0.885552,0.59677 -0.507855,0.86957 -0.507854,0.86957 v 1.26645 1.26644 l 0.434782,0.84078 0.434782,0.84078 0.98481,0.6501 0.984809,0.65011 1.433451,0.30625 1.433452,0.30625 1.843389,-0.30443 1.843389,-0.30443 0.05938,0.0745 0.05937,0.0746 0.165584,0.69186 0.165582,0.69187 -1.495407,0.30032 -1.495406,0.30032 -1.74181,-0.007 -1.741811,-0.007 -1.79157,-0.61052 z m 23.884278,0.24643 -1.190625,-0.33043 -0.79375,-0.41603 -0.79375,-0.41605 -0.713568,-0.75122 -0.713568,-0.75123 -0.410911,-0.98368 -0.410911,-0.98369 0.0026,-1.26527 0.0026,-1.26527 0.639395,-1.3733 0.639395,-1.37329 1.121111,-0.81213 1.121108,-0.81212 1.327642,-0.39427 1.327518,-0.39427 h 1.422315 1.422315 l 1.160013,0.2921 1.16001,0.29209 1.108247,0.94862 1.108247,0.94862 0.362444,0.86745 0.362448,0.86746 v 1.19912 1.19913 h -5.820833 -5.820833 v 0.37965 0.37965 l 0.281416,0.74483 0.281416,0.74482 0.700085,0.73383 0.700087,0.73382 1.315477,0.39066 1.315479,0.39065 h 1.371073 1.371074 l 1.409268,-0.26726 1.409266,-0.26726 0.192233,0.20112 0.192233,0.20111 0.08826,0.51271 0.08826,0.5127 -1.5875,0.33565 -1.5875,0.33564 -1.984375,-0.0121 -1.984374,-0.0121 -1.190625,-0.33044 z m 6.526842,-7.99792 -0.156978,-0.96735 -0.711261,-0.74239 -0.71126,-0.7424 -1.350632,-0.30226 -1.350629,-0.30225 -1.126514,0.30333 -1.126516,0.30334 -0.899039,0.78937 -0.899035,0.78936 -0.26651,0.76451 -0.266509,0.76451 0.154784,0.15479 0.154784,0.15478 h 4.356147 4.356145 z m -59.500164,2.02545 -0.07563,-6.08564 1.256771,2.2e-4 1.25677,2.3e-4 0.0039,1.25677 0.0039,1.25677 0.855961,-0.989 0.855946,-0.98901 0.983689,-0.40006 0.983689,-0.40006 h 0.93454 0.93454 v 0.92604 0.92605 h -0.869979 -0.869979 l -1.174488,0.59531 -1.174488,0.59531 -0.53277,0.92604 -0.532768,0.92604 -0.09802,3.77032 -0.09802,3.77031 h -1.284005 -1.284007 z m 41.067072,-2.91019 v -8.99584 h 1.455208 1.455209 v 8.99584 8.99583 h -1.455209 -1.455208 z m -91.148958,5.33084 -2.38125,-0.72457 -1.91822,-0.88709 -1.91823,-0.88711 v -0.23612 -0.23613 l 0.53331,-0.72134 0.53331,-0.72135 -0.92487,-2.29363 -0.92487,-2.29364 -0.29947,-1.81338 -0.29948,-1.81338 0.43238,-1.68772 0.43237,-1.68773 0.57103,-0.92394 0.57103,-0.92394 0.32607,1.59854 0.32607,1.59853 0.45312,0.89127 0.45312,0.89126 1.17077,1.65365 1.17076,1.65364 h 0.17059 0.17059 l 0.74383,-0.71263 0.74382,-0.71263 0.21946,0.24961 0.21945,0.24961 0.55865,2.91042 0.55865,2.91041 0.80795,2.47218 0.80796,2.47218 -0.14821,0.2398 -0.14821,0.2398 -0.31511,-0.015 -0.31512,-0.015 z"
         id="path1724" /></g></g></svg>
